<svg width="191" height="29" viewBox="0 0 191 29" fill="none" xmlns="http://www.w3.org/2000/svg">
<path d="M30.0297 0L22 29H27.6487L29.2998 23.0731H37.6888L39.3551 29H45L36.9741 0H30.0297ZM36.0454 17.1583H30.9202L33.4656 7.94268L36.0454 17.1583Z" fill="#09185B"/>
<path d="M131.03 0L123 29H128.649L130.3 23.0731H138.689L140.355 29H146L137.974 0H131.03ZM137.045 17.1583H131.92L134.466 7.94268L137.045 17.1583Z" fill="#09185B"/>
<path d="M70 22.5551H54.2863V0H48V29H70V22.5551Z" fill="#09185B"/>
<path d="M120 22.5551H106.151V0H100V29H120V22.5551Z" fill="#09185B"/>
<path d="M169.111 9.72958C169.111 4.40903 166.444 0.923567 161.795 0.16062C161.09 0.0401551 160.161 0 159.582 0H148V29H153.942V19.4431H158.873L163.302 29H170L164.963 18.1742C167.646 16.584 169.111 13.6206 169.111 9.72958ZM163.138 9.72958C163.138 10.6411 162.915 12.8255 160.835 13.3676C160.494 13.472 159.985 13.5242 159.398 13.5242H153.938V5.93492H159.398C159.969 5.93492 160.506 5.98712 160.855 6.07948C162.915 6.63362 163.138 8.81806 163.138 9.72958Z" fill="#09185B"/>
<path d="M184.902 0L180.006 10.0829L175.102 0H169L177.362 17.1864V29H182.657V17.1864L191 0H184.902Z" fill="#09185B"/>
<path d="M15.7174 9.66536H21.9726C21.9726 4.82515e-05 11.0878 4.83886e-05 11.0878 4.83886e-05C7.86422 -0.00798261 5.04019 0.983846 3.25413 2.83499C1.84407 4.29664 1.09596 6.2562 1.09596 8.49685C1.09596 14.1266 5.74522 15.532 7.27278 15.9898L13.7943 18.0015C15.7958 18.632 16.066 19.5114 16.066 20.2864C16.066 22.254 13.2381 23.551 11.0133 23.551C11.0133 23.551 5.82747 23.5148 5.82747 19.3347H0.00708545C0.00708545 19.3347 -0.67444 29 11.3306 29C16.6418 29 22 26.2132 22 19.9932C22 14.0583 16.8611 12.6047 14.6756 11.9823L10.1399 10.6612C8.28723 10.1432 7.05344 9.54088 7.05344 8.276C7.05344 7.74595 7.26103 7.26409 7.67229 6.84648C8.40865 6.09558 9.69729 5.64986 11.0133 5.69804C11.0133 5.69804 15.7174 5.63781 15.7174 9.66536Z" fill="#09185B"/>
<path d="M96 11H74V17H96V11Z" fill="#09185B"/>
<path d="M96 23H74V29H96V23Z" fill="#09185B"/>
<path d="M96 0H74V6H96V0Z" fill="#09185B"/>
</svg>
