<svg width="34" height="32" viewBox="0 0 34 32" fill="none" xmlns="http://www.w3.org/2000/svg">
<path d="M24.0197 20.1258H22.5429L22.0195 19.6318C23.8515 17.546 24.9544 14.8382 24.9544 11.8925C24.9544 5.32419 19.5145 0 12.8034 0C6.09227 0 0.652344 5.32419 0.652344 11.8925C0.652344 18.4608 6.09227 23.785 12.8034 23.785C15.8131 23.785 18.5798 22.7055 20.7109 20.9125L21.2156 21.4248V22.8702L30.5626 32L33.348 29.2739L24.0197 20.1258ZM12.8034 20.1258C8.1486 20.1258 4.39113 16.4483 4.39113 11.8925C4.39113 7.33676 8.1486 3.65923 12.8034 3.65923C17.4582 3.65923 21.2156 7.33676 21.2156 11.8925C21.2156 16.4483 17.4582 20.1258 12.8034 20.1258Z" fill="#B1B1B1"/>
</svg>
